<?xml version="1.0" standalone="no"?><!DOCTYPE svg PUBLIC "-//W3C//DTD SVG 1.1//EN" "http://www.w3.org/Graphics/SVG/1.1/DTD/svg11.dtd"><svg t="1585728613074" class="icon" viewBox="0 0 1024 1024" version="1.1" xmlns="http://www.w3.org/2000/svg" p-id="19554" xmlns:xlink="http://www.w3.org/1999/xlink" width="200" height="200"><defs><style type="text/css"></style></defs><path d="M511.046103 515.13262m-441.67126 0a441.67126 441.67126 0 1 0 883.34252 0 441.67126 441.67126 0 1 0-883.34252 0Z" fill="#666263" p-id="19555"></path><path d="M443.466167 595.028553l-38.686451-119.062155-161.231177-52.39096-124.779892 88.735002c1.41109 156.631022 74.787785 232.829897 74.787786 232.829897l144.743997-5.362143 105.165737-144.749641zM406.055341 452.638254l106.983221-77.728498V221.354911L389.697983 135.549333c-118.531584 33.866167-190.497189 131.231397-190.497189 131.231397l39.437151 131.457171 167.417396 54.400353zM535.621651 374.909756l106.971933 77.728498 158.036468-51.352398 36.377907-123.216404c-86.076508-111.476133-194.73046-142.520119-194.730459-142.520119L535.621651 214.017242v160.892514zM908.973564 509.488259L794.398677 427.052365l-150.523823 48.908389-38.686451 119.062154 107.017087 147.300893h124.802469c77.609966-91.720869 71.965605-232.835542 71.965605-232.835542zM584.750171 605.295645H463.910043l-111.23907 153.103297 45.487907 127.850424c101.598501 50.79925 244.11862 0 244.11862 0l46.103142-138.309426-103.630471-142.644295z" fill="#E9F5FC" p-id="19556"></path></svg>