<?xml version="1.0" standalone="no"?><!DOCTYPE svg PUBLIC "-//W3C//DTD SVG 1.1//EN" "http://www.w3.org/Graphics/SVG/1.1/DTD/svg11.dtd"><svg t="1585728737932" class="icon" viewBox="0 0 1024 1024" version="1.1" xmlns="http://www.w3.org/2000/svg" p-id="19678" xmlns:xlink="http://www.w3.org/1999/xlink" width="200" height="200"><defs><style type="text/css"></style></defs><path d="M963.274828 507.543517c0-0.073529-0.015985-0.143861-0.015985-0.220586v-0.028772c-0.818407-74.180937-20.146883-147.575436-55.846699-212.319116-0.086316-0.179027-0.188617-0.348462-0.281327-0.524292l-0.306903-0.575443a452.336199 452.336199 0 0 0-38.036752-57.81599c-51.550061-66.706578-120.305854-117.479791-198.856957-146.90089l-0.258949-0.102301-0.53708-0.210996a452.879673 452.879673 0 0 0-158.780581-28.628266c-55.130592 0-109.100709 9.897612-160.407805 29.414704-0.079923 0.028772-0.156648 0.063938-0.236571 0.095908-0.265343 0.105498-0.533883 0.204602-0.796029 0.31969A452.285049 452.285049 0 0 0 233.885423 154.739696c-111.894802 86.501801-175.960738 217.274316-175.820074 358.826786l-0.003197 0.25895v0.086316c0.17583 100.6449 32.86736 196.002123 94.538816 275.761656 1.57927 2.042821 3.225675 4.021704 4.836914 6.035753 0.441173 0.610608 0.911117 1.195642 1.406637 1.7551 52.064762 64.395217 120.280278 113.087247 197.977809 141.085723l0.332478 0.127876 0.246162 0.09271a453.567007 453.567007 0 0 0 153.607992 26.710125c57.087097 0 112.825101-10.584946 165.673104-31.447935l0.313297-0.121483 0.09271-0.035165a452.924429 452.924429 0 0 0 110.408242-62.918248c113.266273-87.550386 177.303437-219.870201 175.76253-363.081865 0.003197-0.108695 0.015985-0.217389 0.015985-0.332478z m-124.899804 248.530436l-137.505192-26.863576-49.440105-54.775736 62.630527-192.77325 102.045144-15.242834 102.345653 54.532771c-1.659193 86.377122-29.855877 167.834211-80.076027 235.122625z m-4.993562-492.636358a408.139015 408.139015 0 0 1 28.54195 42.179938l-56.80577 117.182479-102.31688 15.284394-169.288802-122.994449-1.732721-71.057563 133.521851-108.61478c66.143923 27.01383 124.059018 71.063957 168.080372 128.019981zM261.260504 190.148594a408.004745 408.004745 0 0 1 92.735762-53.918966l133.026331 108.224757 1.732721 71.044775-168.588679 122.486142-91.955718-15.00946-62.301246-128.489925c25.044538-39.424208 57.087097-74.759577 95.350829-104.337323z m-121.635765 152.716056l43.976597 90.702532-79.088183 42.125591c4.181549-46.546908 16.128376-91.338716 35.111586-132.828123z m-36.518223 184.291867l113.883275-60.661234 91.70636 14.9679 63.094077 194.199069-40.511155 53.762318-146.440535 28.605888c-50.805182-67.445063-78.912354-146.888102-81.732022-230.873941z m115.114083 269.952883l106.530398-20.808641 13.241573 106.066847a405.782898 405.782898 0 0 1-119.771971-85.258206z m167.207617 103.902545l-18.110455-145.046686 40.511155-53.762318h208.37094l49.580769 54.929187-17.451893 139.743024c-44.030945 15.818276-90.152665 23.852093-137.316575 23.852093a408.79438 408.79438 0 0 1-125.583941-19.7153z m374.696213-65.459786a409.769436 409.769436 0 0 1-64.110692 40.642228l12.474315-99.893628 96.687135 18.887303a415.990609 415.990609 0 0 1-45.050758 40.364097z" fill="#009FE8" p-id="19679"></path></svg>