<?xml version="1.0" standalone="no"?><!DOCTYPE svg PUBLIC "-//W3C//DTD SVG 1.1//EN" "http://www.w3.org/Graphics/SVG/1.1/DTD/svg11.dtd"><svg t="1544958101197" class="icon" style="" viewBox="0 0 1024 1024" version="1.1" xmlns="http://www.w3.org/2000/svg" p-id="2115" xmlns:xlink="http://www.w3.org/1999/xlink" width="256" height="256"><defs><style type="text/css"></style></defs><path d="M587.27 229.55a65.85 65.85 0 0 0-46.69-19.25H270.21a39.81 39.81 0 0 0-39.76 39.76v587.13A39.81 39.81 0 0 0 270.21 877H697.3a39.81 39.81 0 0 0 39.76-39.76V405.85a66.71 66.71 0 0 0-19.58-47z m104.19 140.79H590.28A13.27 13.27 0 0 1 577 357.09V256.73z m19.09 466.85a13.27 13.27 0 0 1-13.25 13.25H270.21A13.27 13.27 0 0 1 257 837.19V250.07a13.27 13.27 0 0 1 13.25-13.25h270.33a39.7 39.7 0 0 1 9.93 1.41v118.86a39.81 39.81 0 0 0 39.76 39.76H709.4a39.26 39.26 0 0 1 1.15 9z" fill="#2c2c2c" p-id="2116"></path><path d="M755.81 146.29H339.72a45.31 45.31 0 0 0-45.26 45.26H321a18.78 18.78 0 0 1 18.76-18.76h416.05a18.78 18.78 0 0 1 18.76 18.76v576.13a18.78 18.78 0 0 1-18.76 18.76v26.51a45.32 45.32 0 0 0 45.26-45.26V191.56a45.31 45.31 0 0 0-45.26-45.27z" fill="#2c2c2c" p-id="2117"></path><path d="M302.46 362.34H505v26.51H302.46zM302.46 474.42h354.68v26.51H302.46zM302.46 586.5h354.68v26.51H302.46zM302.46 698.56h354.68v26.51H302.46z" fill="#2c2c2c" p-id="2118"></path></svg>