<?xml version="1.0" standalone="no"?><!DOCTYPE svg PUBLIC "-//W3C//DTD SVG 1.1//EN" "http://www.w3.org/Graphics/SVG/1.1/DTD/svg11.dtd"><svg t="1544958053283" class="icon" style="" viewBox="0 0 1024 1024" version="1.1" xmlns="http://www.w3.org/2000/svg" p-id="1832" xmlns:xlink="http://www.w3.org/1999/xlink" width="256" height="256"><defs><style type="text/css"></style></defs><path d="M238.933333 1024H34.133333c-10.24 0-17.066667-6.826667-17.066666-17.066667v-512c0-10.24 6.826667-17.066667 17.066666-17.066666h204.8c10.24 0 17.066667 6.826667 17.066667 17.066666v512c0 10.24-6.826667 17.066667-17.066667 17.066667z m-187.733333-34.133333h170.666667V512h-170.666667v477.866667zM614.4 1024h-204.8c-10.24 0-17.066667-6.826667-17.066667-17.066667V17.066667c0-10.24 6.826667-17.066667 17.066667-17.066667h204.8c10.24 0 17.066667 6.826667 17.066667 17.066667v989.866666c0 10.24-6.826667 17.066667-17.066667 17.066667z m-187.733333-34.133333h170.666666V34.133333h-170.666666v955.733334zM989.866667 1024h-204.8c-10.24 0-17.066667-6.826667-17.066667-17.066667v-785.066666c0-10.24 6.826667-17.066667 17.066667-17.066667h204.8c10.24 0 17.066667 6.826667 17.066666 17.066667v785.066666c0 10.24-6.826667 17.066667-17.066666 17.066667z m-187.733334-34.133333h170.666667V238.933333h-170.666667v750.933334z" fill="#2c2c2c" p-id="1833"></path></svg>