<?xml version="1.0" standalone="no"?><!DOCTYPE svg PUBLIC "-//W3C//DTD SVG 1.1//EN" "http://www.w3.org/Graphics/SVG/1.1/DTD/svg11.dtd"><svg t="1544345316527" class="icon" style="" viewBox="0 0 1024 1024" version="1.1" xmlns="http://www.w3.org/2000/svg" p-id="838" xmlns:xlink="http://www.w3.org/1999/xlink" width="128" height="128"><defs><style type="text/css"></style></defs><path d="M556.8 688.64v98.56a44.8 44.8 0 0 1-89.6 0v-98.56C455.36 643.712 448 593.92 448 576a64 64 0 0 1 128 0c0 17.92-7.36 67.776-19.2 112.64zM768 320a256 256 0 0 1 256 256v192a256 256 0 0 1-256 256H256a256 256 0 0 1-256-256V576a256 256 0 0 1 256-256V256a256 256 0 1 1 512 0v64zM256 384a192 192 0 0 0-192 192v192a192 192 0 0 0 192 192h512a192 192 0 0 0 192-192V576a192 192 0 0 0-192-192H256z m256-320a192 192 0 0 0-192 192v64h384V256a192 192 0 0 0-192-192z" fill="#cdcdcd" p-id="839"></path></svg>