<?xml version="1.0" standalone="no"?><!DOCTYPE svg PUBLIC "-//W3C//DTD SVG 1.1//EN" "http://www.w3.org/Graphics/SVG/1.1/DTD/svg11.dtd"><svg t="1544346551637" class="icon" style="" viewBox="0 0 1024 1024" version="1.1" xmlns="http://www.w3.org/2000/svg" p-id="1265" xmlns:xlink="http://www.w3.org/1999/xlink" width="128" height="128"><defs><style type="text/css"></style></defs><path d="M512 128C406.272 128 320 214.272 320 320s86.272 192 192 192 192-86.272 192-192-86.272-192-192-192z m0 384a320.64 320.64 0 0 0-320 320h64c0-141.76 114.24-256 256-256s256 114.24 256 256h64c0-176.256-143.744-320-320-320z m0-320c71.04 0 128 56.96 128 128 0 71.04-56.96 128-128 128-71.04 0-128-56.96-128-128 0-71.04 56.96-128 128-128z" fill="" p-id="1266"></path></svg>