<?xml version="1.0" standalone="no"?><!DOCTYPE svg PUBLIC "-//W3C//DTD SVG 1.1//EN" "http://www.w3.org/Graphics/SVG/1.1/DTD/svg11.dtd"><svg t="1544344990183" class="icon" style="" viewBox="0 0 1024 1024" version="1.1" xmlns="http://www.w3.org/2000/svg" p-id="1254" xmlns:xlink="http://www.w3.org/1999/xlink" width="128" height="128"><defs><style type="text/css"></style></defs><path d="M512.452 545.507c-148.48 0-269.141-120.842-269.141-269.14S363.972 7.224 512.45 7.224s269.142 120.843 269.142 269.141S660.93 545.507 512.452 545.507z m0-477.59c-114.882 0-208.45 93.568-208.45 208.45s93.568 208.448 208.45 208.448S720.9 391.248 720.9 276.366 627.333 67.917 512.452 67.917z m384.203 948.316H128.248c-47.506 0-85.98-38.655-85.98-85.98v-58.164l1.806-5.058C101.876 706.811 294.43 594.82 512.452 594.82S923.027 706.81 980.829 867.03l1.806 5.058v58.163c0 47.506-38.655 85.98-85.98 85.98zM103.14 882.927v47.325c0 13.909 11.38 25.289 25.288 25.289h768.226c13.908 0 25.288-11.38 25.288-25.289v-47.506c-51.48-134.028-218.925-227.054-409.491-227.054S154.44 748.718 103.14 882.927z" fill="" p-id="1255"></path></svg>