<?xml version="1.0" standalone="no"?><!DOCTYPE svg PUBLIC "-//W3C//DTD SVG 1.1//EN" "http://www.w3.org/Graphics/SVG/1.1/DTD/svg11.dtd"><svg t="1585729846883" class="icon" viewBox="0 0 1024 1024" version="1.1" xmlns="http://www.w3.org/2000/svg" p-id="6789" xmlns:xlink="http://www.w3.org/1999/xlink" width="200" height="200"><defs><style type="text/css"></style></defs><path d="M1023.98464 512c0-282.76736-229.22752-512-511.98464-512C229.21728 0-0.00512 229.23264-0.00512 512c0 282.77248 229.2224 512 512.00512 512 282.77248 0 511.98464-229.22752 511.98464-512z" fill="#A2A5BA" p-id="6790"></path><path d="M633.68192 830.4896c-44.5184-17.3056-45.93664-93.02528-44.81024-144.85504 0.24064-11.19744-9.33888-16.09728-17.90976-14.73024a16.5632 16.5632 0 0 0-3.68128-3.23584c-43.57632-27.7504-99.90656-20.75136-146.42688-4.13184-3.77344 1.36192-6.20032 4.49024-7.29088 8.00256-5.5296 0.86016-0.14848 5.41184 0.12288 13.14816 4.13696 113.9712-24.576 109.87008-52.78208 161.17248-15.11424 27.48416-11.6224 48.65536-2.66752 79.04256 20.56192 69.81632 92.7488 101.8624 161.16736 98.02752 66.16064-3.71712 132.27008-36.75136 142.03904-108.32384 4.90496-35.98848 5.10976-71.34208-27.76064-84.11648z" fill="#EBCFBF" p-id="6791"></path><path d="M756.18816 399.46752c3.68128-32.64512 4.59264-65.09056 0.8192-94.91456-19.968-156.42112-228.6592-139.49952-343.09632-138.72128-68.72576 0.47104-110.16192 34.24768-128.60416 100.00896-12.62592 44.99456-17.59744 92.42112-17.26976 139.81184a33.6384 33.6384 0 0 0-30.40768 10.2144c-12.12928 12.98432-12.60544 33.13152-10.63936 49.70496 1.99168 16.66048 8.28928 34.30912 23.49056 43.27424 8.30976 4.89472 17.9712 6.4256 26.67008 4.16768 0.37888 2.51392 0.75264 5.0432 1.17248 7.552 0.26624 1.59744 0.86016 2.88256 1.6896 3.95264 8.61696 44.6464 25.25696 87.04 52.79744 124.5184 72.0128 97.95072 205.02016 125.33248 300.4928 44.75904 50.69824-42.77248 80.60928-103.55712 97.46944-166.72256 1.38752-5.15072 2.72896-10.40384 4.09088-15.71328 1.48992 0.55296 3.22048 0.83456 5.1712 0.72704 49.29024-2.73408 58.38336-100.44416 16.1536-112.61952z" fill="#FFE4DA" p-id="6792"></path><path d="M777.73824 409.27232a4.36224 4.36224 0 0 0 0.32256-1.3056c4.56192-61.47072 7.57248-126.46912-17.69984-184.28416-22.45632-51.33312-65.18784-80.768-116.16256-100.53632-62.61248-24.2944-135.79264-39.59808-203.20256-32.42496-44.84096 4.77184-98.816 25.6-108.70272 74.27072-111.06304-7.12192-95.02208 150.2208-92.71808 229.98528a174.7968 174.7968 0 0 0-1.83808 10.2912c-0.29184 1.93024 0.53248 4.11648 2.06336 5.22752-0.00512 1.21856 0 2.4832-0.0256 3.62496 0 0.03072 0.02048 0.04096 0.02048 0.05632-0.19968 0.26624-0.4608 0.45056-0.64512 0.74752-1.05472 1.55136 1.2288 3.14368 2.5088 1.94048 11.70432-10.97728 27.95008-4.0192 34.2784 8.94976 6.2464 12.7232 2.41152 25.75872 3.38944 39.07584 0.1024 1.29536 1.14688 1.91488 2.17088 1.85856 0.42496 0.9728 1.4592 1.7152 2.7136 1.48992a100.91008 100.91008 0 0 1 10.5728-1.4592c2.9952-0.22528 5.9904 0.16896 8.68864-1.25952a2.11968 2.11968 0 0 0 1.17248-2.19648c1.05984 0.45568 2.41664 0.05632 2.5088-1.52064 1.91488-34.2016 29.32224-50.22208 48.73216-74.19392a195.53792 195.53792 0 0 0 26.75712-43.74528 199.18848 199.18848 0 0 0 13.89568-45.76256c15.27296 30.92992 59.45344 49.83296 89.8816 61.7216 34.02752 13.29664 67.74272 19.36896 104.09472 20.36736 31.90784 0.8704 68.33152 1.6384 95.88224 16.62976 0.16896 0.11264 0.26112 0.27648 0.45056 0.36864 1.03936 0.56832 2.07872 1.11616 3.11296 1.67936 12.02688 7.3216 22.15424 17.59232 29.09696 32.26112 0.5376 3.94752 0.95232 7.9104 1.32096 11.88352 0.19968 2.18624 0.10752 4.42368 0.39936 6.50752-0.96768 1.14176-0.82944 3.31776 0.98816 3.69664 0.1792 0.04608 0.36864 0.1024 0.55296 0.14336 0.19968 0.27136 0.28672 0.59392 0.55296 0.86528 0.77312 0.81408 2.1504 0.7936 3.0208 0.0768 4.41856 1.21856 9.4976 2.54976 13.09184 0.82944a2.0992 2.0992 0 0 0 0.80896-0.74752c1.41824 1.10592 3.9424 0.39424 3.9424-1.792 0.02048-10.9312-0.2816-22.32832 3.74784-32.67072 1.99168-5.10464 5.38112-10.5472 10.8288-12.01664 6.6816-1.80224 10.89024 2.82112 13.31712 8.2944 0.4864 1.08544 2.15552 0.70144 2.44736-0.32256 0.13824-0.53248 0.19968-1.01888 0.2816-1.49504 0.5376 0.37888 1.10592 0.76288 1.65888 1.16224 3.24608 2.24256 6.35904-3.08224 3.09248-5.2992l-1.37216-0.9728z" fill="#692601" p-id="6793"></path><path d="M438.18496 1018.68544a515.41504 515.41504 0 0 0 135.74656 1.57696c17.1008-77.71136 40.40192-148.82816 74.84928-174.35136-1.32096-6.69184-2.21696-14.45888-5.98016-19.81952-4.3264-6.13888-9.16992-11.32032-14.75072-16.32256a3.6864 3.6864 0 0 0-3.28192-0.73216c-1.32096-3.82976-6.0672-6.33856-9.54368-2.43712-14.54592 16.27648-32.54272 25.92256-52.54656 32.75264-1.34144-2.23744-3.79904-3.5584-7.02976-2.31936-16.13312 6.24128-32.53248 9.91232-49.90464 9.92256-13.83424 0.0256-27.31008-4.608-40.94976-2.64704-0.13824 0.01024-0.26112 0.1024-0.4096 0.13312-11.22304-1.96608-22.41024-4.4288-32.9728-8.64256-15.3088-6.10816-26.53184-17.29024-40.74496-24.64256 1.00352-4.98176-6.17984-8.12032-9.70752-3.45088-11.06432 14.62272-20.64384 30.24896-28.91776 46.53056 37.18144 18.9952 63.74912 87.296 86.144 164.44928z" fill="#F7F7F7" p-id="6794"></path><path d="M352.0512 854.26176l-0.128-0.0768a3.6608 3.6608 0 0 0-0.8192-1.44384c-0.29184-0.53248-0.6144-1.05984-0.9216-1.5872-0.67584-1.26976 1.2032-3.11296 0.85504-2.03264-0.39936 0.05632-1.65376 1.09056-2.07872 1.28-45.25056 20.36224-96.59392 45.13792-135.80288 77.35296a510.69952 510.69952 0 0 0 103.1936 57.49248 508.53888 508.53888 0 0 0 121.83552 33.42848c-22.39488-77.14304-48.96256-145.44384-86.13376-164.41344zM789.57568 903.34208c-37.85728-28.41088-96.96256-47.40608-141.25568-62.69952-1.38752-0.47616 0.17408 2.23744-0.64 3.2-1.16736-0.41984 2.52928 1.00352 1.31584 1.89952a2.4064 2.4064 0 0 1-0.21504 0.16896c-34.45248 25.51296-57.74848 96.64-74.84928 174.35136a508.53376 508.53376 0 0 0 135.29088-35.64032 511.13472 511.13472 0 0 0 104.87808-59.24864c-7.70048-8.12544-15.89248-15.55968-24.5248-22.03136z" fill="#505477" p-id="6795"></path><path d="M451.27168 624.39936h106.66496s-9.78944 40.50432-55.36256 40.50432c-36.95616 0-51.3024-40.50432-51.3024-40.50432z" fill="#FFFFFF" p-id="6796"></path><path d="M457.12384 833.36192c-16.94208-2.25792-57.37984-13.48096-66.93888-33.8432-0.128-0.95232-1.34144-3.8144-1.46432-4.39296-0.49152-2.59072-6.72256-5.44256-10.33728-0.80896-21.13024 25.99424-42.13248 40.32512-22.49216 72.64256 18.09408 29.7984 43.19232 54.20032 71.60832 74.05568 4.1728 2.91328 9.87136-0.9984 9.86112-5.67808-0.06144-33.44384 8.12032-64.21504 24.80128-93.2096 2.432-4.21888-0.78848-8.2176-5.03808-8.76544zM626.72896 795.9808c-0.54784-0.512-8.81152-9.18016-14.26944-4.4544-20.81792 19.77856-45.10208 33.01376-72.448 41.55904-4.06016 1.25952-4.80768 5.0432-3.42016 7.8848a4.48 4.48 0 0 0 0.48128 3.62496c16.93184 28.95872 27.07968 57.07264 20.45952 90.82368-0.9984 4.99712 3.39968 11.41248 9.15968 9.17504 51.24608-19.95776 125.60896-86.8864 60.03712-148.61312z" fill="#FEFEFE" p-id="6797"></path></svg>