<?xml version="1.0" standalone="no"?><!DOCTYPE svg PUBLIC "-//W3C//DTD SVG 1.1//EN" "http://www.w3.org/Graphics/SVG/1.1/DTD/svg11.dtd"><svg t="1552823921339" class="icon" style="" viewBox="0 0 1024 1024" version="1.1" xmlns="http://www.w3.org/2000/svg" p-id="4995" xmlns:xlink="http://www.w3.org/1999/xlink" width="6" height="6"><defs><style type="text/css"></style></defs><path d="M859.3 116.2h-696c-55 0-100 45-100 100v601.9c0 55 45 100 100 100h696c55 0 100-45 100-100V216.2c0-55-45-100-100-100z m-672.6 73.9h647.6c27.5 0 50 22.5 50 50v439.2L771.7 535.6c-16.7-27.9-50.2-27.9-72.5-5.6L542.9 686.2 381.1 479.8c-16.7-22.3-44.6-22.3-66.9 0L136.7 693.7V240.1c0-27.5 22.5-50 50-50z" p-id="4996" fill="#dbdbdb"></path><path d="M595.3 410.7c7.7 7.7 17 13.9 27.2 18.1 10.1 4.2 21.1 6.4 32 6.4 11 0 21.9-2.2 32-6.4 10.1-4.2 19.4-10.4 27.2-18.1 7.7-7.7 13.9-17 18.1-27.2 4.2-10.1 6.4-21.1 6.4-32 0-11-2.2-21.9-6.4-32-4.2-10.1-10.4-19.4-18.1-27.2-7.7-7.7-17-13.9-27.2-18.1-10.1-4.2-21.1-6.4-32-6.4-11 0-21.9 2.2-32 6.4-10.1 4.2-19.4 10.4-27.2 18.1-7.7 7.7-13.9 17-18.1 27.2-4.2 10.1-6.4 21.1-6.4 32 0 11 2.2 21.9 6.4 32 4.2 10.2 10.4 19.4 18.1 27.2z" p-id="4997" fill="#dbdbdb"></path></svg>