<?xml version="1.0" standalone="no"?><!DOCTYPE svg PUBLIC "-//W3C//DTD SVG 1.1//EN" "http://www.w3.org/Graphics/SVG/1.1/DTD/svg11.dtd"><svg t="1587536677673" class="icon" viewBox="0 0 1669 1024" version="1.1" xmlns="http://www.w3.org/2000/svg" p-id="13950" width="488.96484375" height="300" xmlns:xlink="http://www.w3.org/1999/xlink"><defs><style type="text/css"></style></defs><path d="M1247.18577161 801.83668017H398.08033423C305.58999365 796.25631212 248.67754677 769.45104943 228.90257377 722.23723384c-13.71942057-32.75115729-8.6629739-72.33765713 15.0474998-117.66291906a315.63196983 315.63196983 0 0 1 37.27149947-55.51126295l2.8145525-3.22881532L996.3006955 194.70966162a21.32236787 21.32236787 0 0 1 18.86115731 38.24623673l-704.44230701 347.24999578c-19.78715761 24.06381564-59.48331525 85.08234116-42.44978857 125.58265596 16.11971027 38.36807843 80.4157888 50.21113068 131.76005081 53.37902585h842.68435838a190.07368164 190.07368164 0 0 0 45.0815778-18.39815753c33.66497299-18.84897345 59.34928896-45.20342024 76.34626254-78.32010483 18.27631583-35.52915743 26.03765793-78.66126218 23.14999997-128.21444589-3.53342102-61.67647318-23.57644738-133.72170921-59.58078921-214.13749729a21.3248048 21.3248048 0 0 1 38.92855216-17.42342028c38.23405212 85.42349923 59.51986762 162.70794522 63.26042042 229.7332862 3.19226294 57.26578884-6.31142117 107.86681456-28.25518362 150.25568229-50.56447336 97.66863041-148.30620849 117.93097241-152.44884023 118.74731487z" p-id="13951"></path><path d="M783.85680326 344.12463369a21.33455248 21.33455248 0 0 1-20.51821001-27.18297315c15.64452589-54.82894678 42.8884206-102.53013067 76.76052535-134.35528839 34.66407874-32.61713098 73.27584129-46.67770963 108.74407716-39.57431522 36.02871031 7.21305225 61.3353151 35.74847309 76.21223621 58.41110479a21.34064441 21.34064441 0 1 1-35.6997361 23.39368409C969.48324819 194.58781992 950.1347226 186.78992473 940.38735435 184.84045166c-43.22957868-8.65078928-107.53784109 43.86315713-136.06107732 143.77368245a21.33455248 21.33455248 0 0 1-20.46947377 15.51049958zM1255.00803455 471.69331651c-30.70421028 0-50.19894679-9.08942058-57.97247347-27.04894755-3.65526346-8.52894758-4.1548156-18.20321037-1.34026311-28.64507867l0.10965855-0.38989432a185.96760301 185.96760301 0 0 1 13.31734165-33.47002581 187.9048922 187.9048922 0 0 1 46.89702601-57.26578885 174.23420859 174.23420859 0 0 1 85.66718265-37.33242105 21.32236787 21.32236787 0 1 1 5.92152612 42.23047367 131.49199819 131.49199819 0 0 0-64.67378825 28.18207816 137.40134042 137.40134042 0 0 0-46.0197627 69.03573633c9.12597367 3.47250017 37.86852555 3.16789446 70.03484138-5.45852634a197.99341853 197.99341853 0 0 0 63.54065692-30.59455245 21.32358669 21.32358669 0 0 1 24.75831567 34.72499958 240.41883935 240.41883935 0 0 1-77.24789361 37.03999993c-7.4567371 1.99821076-33.87210475 8.52894758-60.50678877 8.97976277z" p-id="13952"></path><path d="M1145.08208838 407.96989558c-63.16294648 0-113.3131563-23.14999996-148.48897178-47.40876204-57.14394642-39.37936806-86.97089338-89.16405131-88.21368326-91.27191989a21.3248048 21.3248048 0 0 1 36.68665726-21.74881601c0.26805262 0.43863129 27.08549992 44.80134131 76.96765711 78.74655222 65.0636833 44.28960456 137.81560324 51.05184161 216.24536588 20.10394649a21.3248048 21.3248048 0 0 1 15.65671048 39.67178915c-39.5986837 15.64452589-75.9563675 21.90721009-108.85373569 21.90721008zM398.75046578 882.76420573a21.32236787 21.32236787 0 0 1-21.32236787-21.32236787v-50.30860461a21.32236787 21.32236787 0 0 1 42.64473646 0v50.34515698a21.32236787 21.32236787 0 0 1-21.32236859 21.2858155zM537.00470104 882.76420573a21.32236787 21.32236787 0 0 1-21.32236787-21.32236787v-50.30860461a21.32236787 21.32236787 0 0 1 42.64473646 0v50.34515698a21.32236787 21.32236787 0 0 1-21.32236859 21.2858155zM671.18941004 882.76420573a21.32236787 21.32236787 0 0 1-21.32236788-21.32236787v-50.30860461a21.32236787 21.32236787 0 0 1 42.64473575 0v50.34515698a21.32236787 21.32236787 0 0 1-21.32236787 21.2858155zM805.37411901 882.76420573a21.32236787 21.32236787 0 0 1-21.32236859-21.32236787v-50.30860461a21.32236787 21.32236787 0 0 1 42.64473647 0v50.34515698a21.32236787 21.32236787 0 0 1-21.32236787 21.2858155zM1077.81306254 882.76420573a21.32236787 21.32236787 0 0 1-21.32236786-21.32236787v-50.30860461a21.32236787 21.32236787 0 0 1 42.64473645 0v50.34515698a21.32236787 21.32236787 0 0 1-21.32236859 21.2858155zM1187.59279852 882.76420573a21.32236787 21.32236787 0 0 1-21.32236859-21.32236787v-50.30860461a21.32236787 21.32236787 0 0 1 42.64473647 0v50.34515698a21.32236787 21.32236787 0 0 1-21.32236788 21.2858155zM980.24190606 795.2450225a21.31018399 21.31018399 0 0 1-18.16665727-10.12507869l-245.9992074-398.33838979a21.32236787 21.32236787 0 1 1 36.28457832-22.40676294l245.9992074 398.35057438a21.32236787 21.32236787 0 0 1-18.11792105 32.53184164z" p-id="13953"></path><path d="M807.43325063 808.3796016a21.31018399 21.31018399 0 0 1-18.27631583-10.28347349L575.70175367 445.71657943a21.32236787 21.32236787 0 0 1 36.47952549-22.08997335l213.46736573 352.37954866a21.32236787 21.32236787 0 0 1-18.27631511 32.37344686zM618.3464894 793.05186458a21.31018399 21.31018399 0 0 1-18.06918406-9.97886778L423.39912363 501.82486846a21.32236787 21.32236787 0 1 1 36.10181506-22.69918405L636.37912111 760.37381274a21.32236787 21.32236787 0 0 1-18.03263171 32.67805184z" p-id="13954"></path></svg>