<?xml version="1.0" standalone="no"?><!DOCTYPE svg PUBLIC "-//W3C//DTD SVG 1.1//EN" "http://www.w3.org/Graphics/SVG/1.1/DTD/svg11.dtd"><svg t="1587535624399" class="icon" viewBox="0 0 1024 1024" version="1.1" xmlns="http://www.w3.org/2000/svg" p-id="9737" xmlns:xlink="http://www.w3.org/1999/xlink" width="200" height="200"><defs><style type="text/css"></style></defs><path d="M512.005824 1023.999313a512.127779 512.127779 0 0 1-199.299926-983.745643 512.127779 512.127779 0 0 1 398.599851 943.445383 508.819896 508.819896 0 0 1-199.299925 40.30026z m0-983.221507A471.36162 471.36162 0 0 0 328.581405 946.205835 471.356961 471.356961 0 0 0 695.418595 77.793478 468.22845 468.22845 0 0 0 512.005824 40.766159z" p-id="9738"></path><path d="M326.065551 506.094387l-158.790011-55.045961-71.725145-222.944298 38.809383-12.486092 65.493746 203.574549 119.363312 41.383474 159.943111-117.231824-2.387732-123.999007L292.96343 84.374301l24.133566-32.857524L517.154007 198.414717l3.168113 165.30095-194.256569 142.37872z" p-id="9739"></path><path d="M690.82949 506.979595L480.417875 365.392903l-2.108193-168.830134L670.388173 38.751146l25.880687 31.494769-176.948423 145.383769 1.595704 127.877615 174.653871 117.534659 117.255119-47.684758 66.646846-210.62127 38.86762 12.299733-72.423992 228.872861-155.086115 63.071071zM117.168107 818.933888l-2.585739-40.684626 212.030614-13.46448 68.021248-95.71894-86.622264-168.585537-119.107067-41.604777L34.901999 601.976392 7.157716 572.112269l171.998247-159.814989 157.671854 55.057609 105.386343 205.123662-93.622395 131.756225-231.423658 14.699112z" p-id="9740"></path><path d="M364.537157 992.714198L312.158467 784.643725l93.715575-130.253701 229.035926 0.640612 96.149897 149.506974-70.385685 186.243107-38.133829-14.419572 63.129308-167.036423-73.052956-113.586165-185.893683-0.524137-70.408979 97.850428 47.754642 189.702407-39.531526 9.946943z" p-id="9741"></path><path d="M697.841269 821.810814L603.228839 687.492145 682.548136 465.887307l150.555247-61.358892 173.698778 181.059981-29.421519 28.22183-154.527036-161.084564-108.065262 44.039099-66.052824 184.554223 70.164382 99.609197 197.005373-1.129805 0.23295 40.766158-218.296956 1.24628z" p-id="9742"></path></svg>